<svg xmlns="http://www.w3.org/2000/svg" viewBox="0 0 79.6 80">
  <defs>
    <style>
      .cls-1 {
        fill: #58c8fa;
      }
    </style>
  </defs>
  <title>Asset 35</title>
  <g id="Layer_2" data-name="Layer 2">
    <g id="Layer_1-2" data-name="Layer 1">
      <g>
        <path class="cls-1" d="M66,19.1a17.33,17.33,0,0,0,.3-3.2A15.92,15.92,0,0,0,35.9,9.3a13,13,0,0,0-6.6-1.9,12.5,12.5,0,0,0-11.9,8.5,7.57,7.57,0,0,0-1.5-.1,15.9,15.9,0,0,0,0,31.8H66.1a.37.37,0,0,0,.3-.1A14,14,0,0,0,79.6,33.4,14.44,14.44,0,0,0,66,19.1Zm0,26.6H15.8a13.9,13.9,0,0,1,0-27.8,15,15,0,0,1,2,.2.92.92,0,0,0,1.1-.7A10.71,10.71,0,0,1,29.2,9.6a10.84,10.84,0,0,1,6.5,2.2,1,1,0,0,0,.9.2,1.06,1.06,0,0,0,.7-.6,13.91,13.91,0,0,1,27,4.7,13.2,13.2,0,0,1-.6,3.9,1,1,0,0,0,.2.9.91.91,0,0,0,.8.4h.5A12.08,12.08,0,0,1,77.6,33.4,12.22,12.22,0,0,1,66,45.7Z"/>
        <path class="cls-1" d="M20.9,52.1,11.6,65.3a1.06,1.06,0,0,0,.2,1.4,1.42,1.42,0,0,0,.6.2.91.91,0,0,0,.8-.4l9.3-13.2a1.06,1.06,0,0,0-.2-1.4A.9.9,0,0,0,20.9,52.1Z"/>
        <path class="cls-1" d="M31.5,52.1,20.2,68.3a1.06,1.06,0,0,0,.2,1.4,1.42,1.42,0,0,0,.6.2.91.91,0,0,0,.8-.4L33.2,53.3a1.06,1.06,0,0,0-.2-1.4A1,1,0,0,0,31.5,52.1Z"/>
        <path class="cls-1" d="M42.2,52.1,32.9,65.3a1.06,1.06,0,0,0,.2,1.4,1.42,1.42,0,0,0,.6.2.91.91,0,0,0,.8-.4l9.3-13.2a1.06,1.06,0,0,0-.2-1.4A.9.9,0,0,0,42.2,52.1Z"/>
        <path class="cls-1" d="M52.8,52.1l-5.3,7.5a1.06,1.06,0,0,0,.2,1.4,1.42,1.42,0,0,0,.6.2.91.91,0,0,0,.8-.4l5.3-7.5a1.06,1.06,0,0,0-.2-1.4A.9.9,0,0,0,52.8,52.1Z"/>
        <path class="cls-1" d="M50.3,72.5a1.42,1.42,0,0,0,.6.2.91.91,0,0,0,.8-.4L65,53.3a1.06,1.06,0,0,0-.2-1.4,1.08,1.08,0,0,0-1.4.2l-13.3,19A1.09,1.09,0,0,0,50.3,72.5Z"/>
        <path class="cls-1" d="M17.1,72.7l-3.3,4.8a1.06,1.06,0,0,0,.2,1.4,1.42,1.42,0,0,0,.6.2.91.91,0,0,0,.8-.4l3.3-4.8a1.06,1.06,0,0,0-.2-1.4A.9.9,0,0,0,17.1,72.7Z"/>
        <path class="cls-1" d="M29.6,69.9l-6,8.5a1.06,1.06,0,0,0,.2,1.4,1.42,1.42,0,0,0,.6.2.91.91,0,0,0,.8-.4l6-8.5a1.06,1.06,0,0,0-.2-1.4A1.09,1.09,0,0,0,29.6,69.9Z"/>
        <path class="cls-1" d="M38.7,74a1.42,1.42,0,0,0,.6.2.91.91,0,0,0,.8-.4l6-8.5a1,1,0,0,0-1.6-1.2l-6,8.5A.91.91,0,0,0,38.7,74Z"/>
      </g>
    </g>
  </g>
</svg>
