<svg xmlns="http://www.w3.org/2000/svg" viewBox="0 0 78.11 79.4">
  <defs>
    <style>
      .cls-1 {
        fill: #58c8fa;
      }
    </style>
  </defs>
  <title>Asset 36</title>
  <g id="Layer_2" data-name="Layer 2">
    <g id="Layer_1-2" data-name="Layer 1">
      <g>
        <path class="cls-1" d="M.91,79.4h76.2a.94.94,0,0,0,1-1V46.5a.94.94,0,0,0-1-1h-4a.94.94,0,0,0-1,1v1.8h-2.8V46.5a.94.94,0,0,0-1-1h-3.5a.94.94,0,0,0-1,1v1.8H61V46.5a.94.94,0,0,0-1-1H57V31.1l1.7-9.6a.78.78,0,0,0-.2-.8,1.23,1.23,0,0,0-.8-.4H53a.94.94,0,0,0-1,1v2.2h-3.6V21.3a.94.94,0,0,0-1-1h-5.2a.94.94,0,0,0-1,1v2.2h-.7V11.3a5.21,5.21,0,0,1,2.7-.7,1.19,1.19,0,0,0,.2,1.3,4.24,4.24,0,0,0,2.9.7,19.86,19.86,0,0,0,7.3-1.5c3.9-1.7,5.7-.2,5.8-.2a1,1,0,0,0,1.2.1A1.09,1.09,0,0,0,61,9.8a8.15,8.15,0,0,0-2.5-3.6,6.07,6.07,0,0,1,1.7-.4,1.07,1.07,0,0,0,.9-.7,1,1,0,0,0-.3-1.1c-.2-.1-4.3-3.4-10.5-.8a10.27,10.27,0,0,1-3.6,1V3.7a1.19,1.19,0,0,0-.5-.9,6.93,6.93,0,0,0-5.6-.7V1a1,1,0,0,0-2,0V23.4h-.9V21.2a.94.94,0,0,0-1-1h-5.4a.94.94,0,0,0-1,1v2.2h-3.7V21.2a.94.94,0,0,0-1-1h-5.2a.91.91,0,0,0-.8.4.78.78,0,0,0-.2.8l1.7,9.6V45.4h-3a.94.94,0,0,0-1,1v1.8h-2.8V46.4a.94.94,0,0,0-1-1H9.81a.94.94,0,0,0-1,1v1.8H6V46.4a.94.94,0,0,0-1-1H1a.94.94,0,0,0-1,1V78.2A1,1,0,0,0,.91,79.4Zm50-74.2a9.25,9.25,0,0,1,6.2-.5,3.78,3.78,0,0,0-1.6,1.2,1,1,0,0,0-.2,1,.87.87,0,0,0,.9.6,2.72,2.72,0,0,1,1.6.8,10.17,10.17,0,0,0-5,.9,16.12,16.12,0,0,1-6.4,1.4.91.91,0,0,0,.3-.7V6.3A9.87,9.87,0,0,0,50.91,5.2Zm-6.3-.7V8.7h-.4a.45.45,0,0,0-.5,0,10,10,0,0,0-3.3.5V4.5A4.66,4.66,0,0,1,44.61,4.5ZM23.11,32.2H55V77.3h-6.7c0-2.7-.4-13.8-8.6-21a1.05,1.05,0,0,0-1.3,0c-8.2,7.2-8.6,18.3-8.6,21h-6.7ZM38,59.5V77.4h-6.2C31.81,75.1,32.21,66,38,59.5Zm2,0c5.9,6.5,6.3,15.6,6.3,17.9H40Zm19-12v1.8a.94.94,0,0,0,1,1h4.8a.94.94,0,0,0,1-1V47.5h1.5v1.8a.94.94,0,0,0,1,1h4.8a.94.94,0,0,0,1-1V47.5h2V77.3H57V47.5ZM24.61,22.4v2.2a.94.94,0,0,0,1,1h5.7a.94.94,0,0,0,1-1V22.4h3.4v2.2a.94.94,0,0,0,1,1h5.6a.94.94,0,0,0,1-1V22.4h3.2v2.2a.94.94,0,0,0,1,1h5.6a.94.94,0,0,0,1-1V22.4h2.5l-1.4,7.9H23l-1.4-7.9ZM1.91,47.5h2v1.8a.94.94,0,0,0,1,1h4.8a.94.94,0,0,0,1-1V47.5h1.5v1.8a.94.94,0,0,0,1,1H18a.94.94,0,0,0,1-1V47.5h2V77.3H1.91Z"/>
        <path class="cls-1" d="M11.51,53.8A3.48,3.48,0,0,0,8,57.3v4.4a.94.94,0,0,0,1,1h5.1a.94.94,0,0,0,1-1V57.3A3.7,3.7,0,0,0,11.51,53.8ZM13,60.7H9.91V57.3a1.47,1.47,0,0,1,1.5-1.5,1.54,1.54,0,0,1,1.5,1.5v3.4Z"/>
        <path class="cls-1" d="M64,62.7h5.1a.94.94,0,0,0,1-1V57.3a3.48,3.48,0,0,0-3.5-3.5,3.54,3.54,0,0,0-3.5,3.5v4.4A.92.92,0,0,0,64,62.7Zm1-5.4a1.47,1.47,0,0,1,1.5-1.5A1.54,1.54,0,0,1,68,57.3v3.4h-3.1l.1-3.4Z"/>
      </g>
    </g>
  </g>
</svg>
