<svg xmlns="http://www.w3.org/2000/svg" viewBox="0 0 80 80.01">
  <defs>
    <style>
      .cls-1, .cls-2 {
        fill: #58c8fa;
      }

      .cls-2 {
        isolation: isolate;
        font-size: 43px;
        font-family: AvenirNext-Regular, Avenir Next;
      }
    </style>
  </defs>
  <title>Asset 37</title>
  <g id="Layer_2" data-name="Layer 2">
    <g id="Layer_1-2" data-name="Layer 1">
      <g>
        <path class="cls-1" d="M4.82,54.71c5.3,9.2,7.9,14.1,7.9,24.3a.94.94,0,0,0,1,1h40.9a.94.94,0,0,0,1-1v-8.4h5a9.26,9.26,0,0,0,9.4-9.1V58h5a4.94,4.94,0,0,0,4.6-6.8l-1.3-3A28,28,0,0,1,76,36.81a35.9,35.9,0,0,0-11.6-26.5A38.57,38.57,0,0,0,35.32.11c-18.6,1.2-33.7,15.8-35.2,33.8A35.92,35.92,0,0,0,4.82,54.71ZM2.12,34c1.4-17,15.7-30.8,33.3-31.9A37,37,0,0,1,63,11.81a33.93,33.93,0,0,1,11,25.1A30,30,0,0,0,76.42,49l1.3,3a2.67,2.67,0,0,1-.2,2.6,3,3,0,0,1-2.5,1.3h-6.1a.94.94,0,0,0-1,1v4.5a7.26,7.26,0,0,1-7.4,7.1h-6a.94.94,0,0,0-1,1V78H14.72c-.2-10-2.8-15.1-8.1-24.3A34,34,0,0,1,2.12,34Z"/>
        <text class="cls-2" transform="translate(26.19 47.52)">?</text>
      </g>
    </g>
  </g>
</svg>
