<svg xmlns="http://www.w3.org/2000/svg" viewBox="0 0 80 80">
  <defs>
    <style>
      .cls-1 {
        fill: #58c8fa;
      }
    </style>
  </defs>
  <title>Asset 41</title>
  <g id="Layer_2" data-name="Layer 2">
    <g id="Layer_1-2" data-name="Layer 1">
      <g>
        <path class="cls-1" d="M11.2,22.3,4.9,28.6a.91.91,0,0,0-.2,1.1,1,1,0,0,0,.9.6H29.4a.94.94,0,0,0,1-1V5.5a.87.87,0,0,0-.6-.9.91.91,0,0,0-1.1.2l-6.4,6.4L11.4.3A1,1,0,0,0,10,.3L.3,10a1,1,0,0,0,0,1.4ZM10.6,2.4,21.5,13.3a1,1,0,0,0,1.4,0l5.4-5.4V28.3H8L13.3,23a1,1,0,0,0,0-1.4L2.4,10.7Z"/>
        <path class="cls-1" d="M.3,70.1l9.6,9.6a1,1,0,0,0,1.4,0L22.2,68.8l6.3,6.3a.91.91,0,0,0,1.1.2,1,1,0,0,0,.6-.9V50.7a.94.94,0,0,0-1-1H5.5a.87.87,0,0,0-.9.6.91.91,0,0,0,.2,1.1l6.4,6.4L.3,68.6A1.09,1.09,0,0,0,.3,70.1Zm13-11.6a1,1,0,0,0,0-1.4L7.9,51.7H28.3V72L23,66.7a1,1,0,0,0-1.4,0L10.7,77.6,2.5,69.4Z"/>
        <path class="cls-1" d="M68.8,57.7l6.3-6.3a.91.91,0,0,0,.2-1.1,1,1,0,0,0-.9-.6H50.7a.94.94,0,0,0-1,1V74.5a.87.87,0,0,0,.6.9.91.91,0,0,0,1.1-.2l6.4-6.4L68.7,79.7a1,1,0,0,0,1.4,0l9.6-9.6a1,1,0,0,0,0-1.4Zm.6,19.9L58.5,66.7a1,1,0,0,0-1.4,0l-5.4,5.4V51.7H72L66.7,57a1,1,0,0,0,0,1.4L77.6,69.3Z"/>
        <path class="cls-1" d="M79.7,9.9,70,.3a1,1,0,0,0-1.4,0L57.7,11.2,51.4,4.9a.91.91,0,0,0-1.1-.2,1,1,0,0,0-.6.9V29.4a.94.94,0,0,0,1,1H74.5a.87.87,0,0,0,.9-.6.91.91,0,0,0-.2-1.1l-6.4-6.4L79.7,11.4A1.09,1.09,0,0,0,79.7,9.9Zm-13,11.6a1,1,0,0,0,0,1.4l5.4,5.4H51.7V8L57,13.3a1,1,0,0,0,1.4,0L69.3,2.4l8.2,8.2Z"/>
      </g>
    </g>
  </g>
</svg>
