<svg xmlns="http://www.w3.org/2000/svg" viewBox="0 0 80.1 80">
  <defs>
    <style>
      .cls-1 {
        fill: #58c8fa;
      }
    </style>
  </defs>
  <title>Asset 40</title>
  <g id="Layer_2" data-name="Layer 2">
    <g id="Layer_1-2" data-name="Layer 1">
      <g>
        <path class="cls-1" d="M40.1,17.7A22.3,22.3,0,1,0,62.4,40,22.32,22.32,0,0,0,40.1,17.7Zm0,42.6A20.3,20.3,0,1,1,60.4,40,20.31,20.31,0,0,1,40.1,60.3Z"/>
        <path class="cls-1" d="M41,10.6V1a1,1,0,0,0-2,0v9.6a.94.94,0,0,0,1,1A1,1,0,0,0,41,10.6Z"/>
        <path class="cls-1" d="M25.3,15.5a.9.9,0,0,0,.5-.1,1.11,1.11,0,0,0,.4-1.4L21.4,5.7A1.11,1.11,0,0,0,20,5.3a1.11,1.11,0,0,0-.4,1.4L24.4,15A.87.87,0,0,0,25.3,15.5Z"/>
        <path class="cls-1" d="M15.4,25.8a1,1,0,0,0-.4-1.4L6.7,19.6a1,1,0,0,0-1,1.8L14,26.2a.9.9,0,0,0,.5.1A.87.87,0,0,0,15.4,25.8Z"/>
        <path class="cls-1" d="M11.6,40.1a.94.94,0,0,0-1-1H1a1,1,0,0,0,0,2h9.6A1,1,0,0,0,11.6,40.1Z"/>
        <path class="cls-1" d="M5.4,60.1a1.05,1.05,0,0,0,.9.5.9.9,0,0,0,.5-.1l8.3-4.8a1,1,0,1,0-1-1.8L5.8,58.7A1.11,1.11,0,0,0,5.4,60.1Z"/>
        <path class="cls-1" d="M24.5,65l-4.8,8.3a1,1,0,0,0,.4,1.4.9.9,0,0,0,.5.1,1.19,1.19,0,0,0,.9-.5L26.3,66a1,1,0,0,0-.4-1.4A1.11,1.11,0,0,0,24.5,65Z"/>
        <path class="cls-1" d="M39.1,69.4V79a1,1,0,0,0,2,0V69.4a.94.94,0,0,0-1-1A1,1,0,0,0,39.1,69.4Z"/>
        <path class="cls-1" d="M54.3,64.6a1.11,1.11,0,0,0-.4,1.4l4.8,8.3a1.05,1.05,0,0,0,.9.5.9.9,0,0,0,.5-.1,1.11,1.11,0,0,0,.4-1.4L55.7,65A1,1,0,0,0,54.3,64.6Z"/>
        <path class="cls-1" d="M64.7,54.2a1,1,0,0,0,.4,1.4l8.3,4.8a.9.9,0,0,0,.5.1,1.19,1.19,0,0,0,.9-.5,1,1,0,0,0-.4-1.4l-8.3-4.8A1,1,0,0,0,64.7,54.2Z"/>
        <path class="cls-1" d="M79.1,38.9H69.5a1,1,0,0,0,0,2h9.6a.94.94,0,0,0,1-1A1,1,0,0,0,79.1,38.9Z"/>
        <path class="cls-1" d="M74.7,19.9a1.11,1.11,0,0,0-1.4-.4L65,24.4a1.11,1.11,0,0,0-.4,1.4,1.05,1.05,0,0,0,.9.5.9.9,0,0,0,.5-.1l8.3-4.8A1.27,1.27,0,0,0,74.7,19.9Z"/>
        <path class="cls-1" d="M54.7,15.5a1.19,1.19,0,0,0,.9-.5l4.8-8.3a1,1,0,0,0-1.8-1L53.8,14a1,1,0,0,0,.4,1.4C54.4,15.4,54.5,15.5,54.7,15.5Z"/>
      </g>
    </g>
  </g>
</svg>
