<svg xmlns="http://www.w3.org/2000/svg" viewBox="0 0 80 80.25">
  <defs>
    <style>
      .cls-1 {
        fill: #58c8fa;
      }
    </style>
  </defs>
  <title>Asset 44</title>
  <g id="Layer_2" data-name="Layer 2">
    <g id="Layer_1-2" data-name="Layer 1">
      <g>
        <path class="cls-1" d="M39.9,70.25a.94.94,0,0,0-1,1v7.9a1,1,0,0,0,2,0v-7.9A1.08,1.08,0,0,0,39.9,70.25Z"/>
        <path class="cls-1" d="M39.9,57a.94.94,0,0,0-1,1v5.9a1,1,0,0,0,2,0V58A1,1,0,0,0,39.9,57Z"/>
        <path class="cls-1" d="M39.9,45.25a.94.94,0,0,0-1,1v3.9a1,1,0,0,0,2,0v-3.9A1,1,0,0,0,39.9,45.25Z"/>
        <path class="cls-1" d="M46.2,37c0,.1,0,.1.1.2l23.2,42.5a1.05,1.05,0,0,0,.9.5.9.9,0,0,0,.5-.1,1,1,0,0,0,.4-1.4L48.4,37h2.4c0,.1,0,.2.1.2l27.2,42.5a1,1,0,0,0,.8.5.76.76,0,0,0,.5-.2,1,1,0,0,0,.3-1.4L53.1,37H79a1,1,0,0,0,0-2H70.2L53.1,5.45a1,1,0,0,0-1.7,0l-8.5,14.7L31.5.45a1,1,0,0,0-1.7,0L9.8,35H1a1,1,0,0,0,0,2H26.8L.2,78.65a1,1,0,0,0,.3,1.4,1.69,1.69,0,0,0,.5.2.89.89,0,0,0,.8-.5L29,37.25a.35.35,0,0,1,.1-.2h2.4L8.8,78.65a1,1,0,0,0,.4,1.4.9.9,0,0,0,.5.1,1.05,1.05,0,0,0,.9-.5l23.2-42.5c0-.1,0-.1.1-.2H39v2.4a1,1,0,0,0,2,0V37ZM44,22.15,52.2,8,67.8,35H51.4L44,22.15ZM30.6,3,49.1,35h-37Z"/>
      </g>
    </g>
  </g>
</svg>
