<svg xmlns="http://www.w3.org/2000/svg" viewBox="0 0 80 80.03">
  <defs>
    <style>
      .cls-1 {
        fill: #58c8fa;
      }
    </style>
  </defs>
  <title>Asset 42</title>
  <g id="Layer_2" data-name="Layer 2">
    <g id="Layer_1-2" data-name="Layer 1">
      <g>
        <path class="cls-1" d="M7.5,30.62h8.3a.94.94,0,0,0,1-1v-8.3a.94.94,0,0,0-1-1H7.5a.94.94,0,0,0-1,1v8.3A1,1,0,0,0,7.5,30.62Zm1-8.3h6.3v6.3H8.5Z"/>
        <path class="cls-1" d="M21.9,30.62h8.3a.94.94,0,0,0,1-1v-8.3a.94.94,0,0,0-1-1H21.9a.94.94,0,0,0-1,1v8.3A.94.94,0,0,0,21.9,30.62Zm1-8.3h6.3v6.3H22.9Z"/>
        <path class="cls-1" d="M7.5,44.32h8.3a.94.94,0,0,0,1-1V35a.94.94,0,0,0-1-1H7.5a.94.94,0,0,0-1,1v8.29A1.08,1.08,0,0,0,7.5,44.32ZM8.5,36h6.3v6.29H8.5Z"/>
        <path class="cls-1" d="M21.9,44.32h8.3a.94.94,0,0,0,1-1V35a.94.94,0,0,0-1-1H21.9a.94.94,0,0,0-1,1v8.29A1,1,0,0,0,21.9,44.32Zm1-8.29h6.3v6.29H22.9Z"/>
        <path class="cls-1" d="M15.8,58a1,1,0,0,0,1-1v-8.3a.94.94,0,0,0-1-1H7.5a.94.94,0,0,0-1,1V57a1,1,0,0,0,1,1Zm-7.3-8.3h6.3V56H8.5Z"/>
        <path class="cls-1" d="M21.9,58h8.3a1,1,0,0,0,1-1v-8.3a.94.94,0,0,0-1-1H21.9a.94.94,0,0,0-1,1V57A1,1,0,0,0,21.9,58Zm1-8.3h6.3V56H22.9Z"/>
        <path class="cls-1" d="M1,80H36.6a1,1,0,0,0,1-1V16.73a1.14,1.14,0,0,0-.3-.8L19.5.23a1,1,0,0,0-1.3,0L.3,15.92a1.15,1.15,0,0,0-.3.8V79A1,1,0,0,0,1,80Zm21-2H15.7V63.33H22ZM2,17.13,18.8,2.33l16.8,14.8V78H24V62.33a.94.94,0,0,0-1-1H14.7a.94.94,0,0,0-1,1V78H2Z"/>
        <path class="cls-1" d="M61.8.23a1,1,0,0,0-1.3,0L42.7,15.92a1.15,1.15,0,0,0-.3.8V79a1,1,0,0,0,1,1H79a1,1,0,0,0,1-1V16.73a1.14,1.14,0,0,0-.3-.8ZM64.3,78H58V66.53a3.1,3.1,0,0,1,6.2,0V78ZM78,78H66.3V66.53a5.1,5.1,0,1,0-10.2,0V78H44.4V17.13L61.2,2.33,78,17.13Z"/>
        <path class="cls-1" d="M54,20.32a5.12,5.12,0,0,0-5.1,5.1v4.1a.94.94,0,0,0,1,1h8.3a.94.94,0,0,0,1-1v-4.1A5.28,5.28,0,0,0,54,20.32Zm3.1,8.3H50.8V25.53a3.1,3.1,0,0,1,6.2,0v3.09Z"/>
        <path class="cls-1" d="M64.2,30.62h8.3a.94.94,0,0,0,1-1V25.53a5.1,5.1,0,1,0-10.2,0v4.09A.87.87,0,0,0,64.2,30.62Zm1-5.09a3.1,3.1,0,0,1,6.2,0v3.09H65.1V25.53Z"/>
        <path class="cls-1" d="M54,34a5.11,5.11,0,0,0-5.1,5.09v4.1a.94.94,0,0,0,1,1h8.3a.94.94,0,0,0,1-1v-4.1A5.27,5.27,0,0,0,54,34Zm3.1,8.29H50.8V39.23a3.1,3.1,0,0,1,6.2,0v3.09Z"/>
        <path class="cls-1" d="M64.2,44.32h8.3a.94.94,0,0,0,1-1V39.23a5.1,5.1,0,0,0-10.2,0v4.09A.92.92,0,0,0,64.2,44.32Zm1-5.2a3.1,3.1,0,0,1,6.2,0v3.1H65.1v-3.1Z"/>
        <path class="cls-1" d="M54,47.73a5.12,5.12,0,0,0-5.1,5.09V57a1,1,0,0,0,1,1h8.3a1,1,0,0,0,1-1v-4.1A5.29,5.29,0,0,0,54,47.73ZM57.1,56H50.8v-3.1a3.1,3.1,0,0,1,6.2,0V56Z"/>
        <path class="cls-1" d="M64.2,58h8.3a1,1,0,0,0,1-1v-4.1a5.1,5.1,0,1,0-10.2,0V57A.92.92,0,0,0,64.2,58Zm1-5.21a3.1,3.1,0,0,1,6.2,0V56H65.1V52.82Z"/>
      </g>
    </g>
  </g>
</svg>
