<svg xmlns="http://www.w3.org/2000/svg" viewBox="0 0 76 78.55">
  <defs>
    <style>
      .cls-1 {
        fill: #58c8fa;
      }
    </style>
  </defs>
  <title>Asset 46</title>
  <g id="Layer_2" data-name="Layer 2">
    <g id="Layer_1-2" data-name="Layer 1">
      <g>
        <path class="cls-1" d="M.3,30.15a1,1,0,0,0,0,1.4,1.08,1.08,0,0,0,.7.3.91.91,0,0,0,.7-.3L4.3,29v14.8H2.8a1,1,0,1,0,0,2h72a1,1,0,0,0,0-2H67v-9l4.4,4.5a1.08,1.08,0,0,0,.7.3.91.91,0,0,0,.7-.3,1,1,0,0,0,0-1.4L66.9,32v-2.5L71.3,34a1.08,1.08,0,0,0,.7.3.91.91,0,0,0,.7-.3,1,1,0,0,0,0-1.4l-5.9-5.9v-2.5l4.4,4.5a1.08,1.08,0,0,0,.7.3.91.91,0,0,0,.7-.3,1,1,0,0,0,0-1.4l-5.7-6.4h0a1,1,0,0,0-1.4,0h0l-6.1,6.2a1,1,0,1,0,1.4,1.4L65.2,24v2.5l-5.9,5.9a1,1,0,0,0,1.4,1.4l4.4-4.5v2.5l-5.9,5.9a1,1,0,0,0,1.4,1.4l4.4-4.5v9H60L54.7,35V19.85l2.6,2.6a1,1,0,1,0,1.4-1.4l-4-4v-1.9l2.6,2.6a1,1,0,1,0,1.4-1.4l-4-4v-1.9l2.6,2.6a1,1,0,1,0,1.4-1.4l-4.2-4.4h0a1,1,0,0,0-1.4,0h0l-4.3,4.3a1,1,0,0,0,0,1.4,1.08,1.08,0,0,0,.7.3.91.91,0,0,0,.7-.3l2.6-2.6v1.9l-4,4a1,1,0,0,0,0,1.4,1.08,1.08,0,0,0,.7.3.91.91,0,0,0,.7-.3l2.6-2.6V17l-4,4a1,1,0,0,0,0,1.4,1.08,1.08,0,0,0,.7.3.91.91,0,0,0,.7-.3l2.6-2.6v12.1L33.2.45a1,1,0,0,0-1.7,0L6.3,41.05V29l2.6,2.6a1,1,0,1,0,1.4-1.4l-4-4v-1.9l2.6,2.6a1,1,0,0,0,1.4-1.4l-4-4v-1.9l2.6,2.6a1,1,0,1,0,1.4-1.4L6,16.45H6a1,1,0,0,0-1.4,0h0L.3,20.75a1,1,0,0,0,0,1.4,1.08,1.08,0,0,0,.7.3.91.91,0,0,0,.7-.3l2.6-2.6v1.9l-4,4a1,1,0,0,0,0,1.4,1.08,1.08,0,0,0,.7.3.91.91,0,0,0,.7-.3l2.6-2.6v1.9Zm30.6,13.5v-9l4.4,4.5a1.08,1.08,0,0,0,.7.3.91.91,0,0,0,.7-.3,1,1,0,0,0,0-1.4l-5.9-5.9v-2.5l4.4,4.5a1.08,1.08,0,0,0,.7.3.91.91,0,0,0,.7-.3,1,1,0,0,0,0-1.4l-5.9-5.9v-2.5l4.4,4.5a1.08,1.08,0,0,0,.7.3.91.91,0,0,0,.7-.3,1,1,0,0,0,0-1.4l-5.9-6.3h0a1,1,0,0,0-1.4,0h0l-6.1,6.2a1,1,0,0,0,1.4,1.4L28.9,24v2.5L23,32.35a1,1,0,0,0,1.4,1.4l4.4-4.5v2.5l-5.9,5.9a1,1,0,0,0,1.4,1.4l4.4-4.5v9H7l17.6-28.4,1.9,2.4a1,1,0,0,0,1.6,0l1.7-2.2,1.7,2.2a1.23,1.23,0,0,0,.8.4.91.91,0,0,0,.8-.4l1.7-2.2,1.7,2.2a1.23,1.23,0,0,0,.8.4.91.91,0,0,0,.8-.4l1.9-2.4,17.6,28.4-26.7.1Zm1.5-40.8L39,13.45l-1.5,2-1.7-2.2a1.22,1.22,0,0,0-.9-.4h0a.91.91,0,0,0-.8.4l-1.7,2.2-1.7-2.2a1,1,0,0,0-1.6,0l-1.7,2.2-1.5-2Z"/>
        <path class="cls-1" d="M75,52a.94.94,0,0,0-1,1,4.2,4.2,0,1,1-8.4,0,1,1,0,1,0-2,0,4.2,4.2,0,0,1-8.4,0,1,1,0,0,0-2,0,4.2,4.2,0,1,1-8.4,0,1,1,0,0,0-2,0,4.2,4.2,0,1,1-8.4,0,1,1,0,0,0-2,0A4.2,4.2,0,0,1,24,53a1,1,0,0,0-2,0,4.2,4.2,0,0,1-8.4,0,1,1,0,0,0-2,0,4.2,4.2,0,0,1-8.4,0,.94.94,0,0,0-1-1,.94.94,0,0,0-1,1,6.23,6.23,0,0,0,6.2,6.2,6.14,6.14,0,0,0,5.2-2.8,6.23,6.23,0,0,0,10.4,0,6.23,6.23,0,0,0,10.4,0,6.23,6.23,0,0,0,10.4,0,6.23,6.23,0,0,0,10.4,0,6.23,6.23,0,0,0,10.4,0,6.14,6.14,0,0,0,5.2,2.8A6.23,6.23,0,0,0,76,53,1,1,0,0,0,75,52Z"/>
        <path class="cls-1" d="M75,61.65a.94.94,0,0,0-1,1,4.2,4.2,0,1,1-8.4,0,1,1,0,0,0-2,0,4.2,4.2,0,0,1-8.4,0,1,1,0,1,0-2,0,4.2,4.2,0,1,1-8.4,0,1,1,0,1,0-2,0,4.2,4.2,0,1,1-8.4,0,1,1,0,0,0-2,0,4.2,4.2,0,0,1-8.4,0,1,1,0,0,0-2,0,4.2,4.2,0,0,1-8.4,0,1,1,0,0,0-2,0,4.2,4.2,0,1,1-8.4,0,.94.94,0,0,0-1-1,.94.94,0,0,0-1,1,6.23,6.23,0,0,0,6.2,6.2,6.14,6.14,0,0,0,5.2-2.8,6.23,6.23,0,0,0,10.4,0,6.23,6.23,0,0,0,10.4,0,6.23,6.23,0,0,0,10.4,0,6.23,6.23,0,0,0,10.4,0,6.23,6.23,0,0,0,10.4,0,6.14,6.14,0,0,0,5.2,2.8,6.23,6.23,0,0,0,6.2-6.2A1,1,0,0,0,75,61.65Z"/>
        <path class="cls-1" d="M74,72.35a4.2,4.2,0,0,1-8.4,0,1,1,0,0,0-2,0,4.2,4.2,0,0,1-8.4,0,1,1,0,0,0-2,0,4.2,4.2,0,0,1-8.4,0,1,1,0,0,0-2,0,4.2,4.2,0,1,1-8.4,0,1,1,0,0,0-2,0,4.2,4.2,0,0,1-8.4,0,1,1,0,0,0-2,0,4.2,4.2,0,0,1-8.4,0,1,1,0,0,0-2,0,4.2,4.2,0,0,1-8.4,0,.94.94,0,0,0-1-1,.94.94,0,0,0-1,1,6.23,6.23,0,0,0,6.2,6.2,6.14,6.14,0,0,0,5.2-2.8,6.23,6.23,0,0,0,10.4,0,6.23,6.23,0,0,0,10.4,0,6.23,6.23,0,0,0,10.4,0,6.23,6.23,0,0,0,10.4,0,6.23,6.23,0,0,0,10.4,0,6.14,6.14,0,0,0,5.2,2.8,6.23,6.23,0,0,0,6.2-6.2,1,1,0,0,0-2,0Z"/>
      </g>
    </g>
  </g>
</svg>
